# xmcd
#
# Track frame offsets:
#	150
#	10584
#	22088
#	38399
#	56232
#	73874
#	87334
#	98892
#	107814
#	121348
#	136250
#	147748
#	160875
#	172935
#	184120
#	199910
#	210254
#	226626
#	241225
#	251234
#	262545
#	274183
#	286078
#	300186
#
# Disc length: 4194 seconds
#
# Revision: 0
# Processed by: cddbd v1.5.1PL0 Copyright (c) Steve Scherf et al.
# Submitted via: audiograbber 1.80
#
DISCID=43106018
DTITLE=Chris Farlowe - Handbags And Gladrags
DYEAR=1900
DGENRE=
TTITLE0=In The Midnight Hour
TTITLE1=Mr. Pitiful
TTITLE2=Think
TTITLE3=Handbags And Gladrags
TTITLE4=North, South, East, West
TTITLE5=Cuttin In
TTITLE6=Open The Door To Your Heart
TTITLE7=Treat Her Good
TTITLE8=Paint It Black
TTITLE9=Lipstick Traces
TTITLE10=I Just Don't Know What To Do With Myself
TTITLE11=Ride On Baby
TTITLE12=What Becomes Of The Broken Hearted
TTITLE13=(I Cant Get No) Satisfaction
TTITLE14=Don't Play That Song
TTITLE15=Baby Make It Soon
TTITLE16=It's All Over Now, Baby Blue
TTITLE17=Reach Out, I'll Be There
TTITLE18=My Girl Josephine
TTITLE19=Rockin' Pneumonia
TTITLE20=My Way Of Giving
TTITLE21=Yesterday's Papers
TTITLE22=It Was Easier To Hurt Her
TTITLE23=Out Of Time
EXTD=
EXTT0=
EXTT1=
EXTT2=
EXTT3=
EXTT4=
EXTT5=
EXTT6=
EXTT7=
EXTT8=
EXTT9=
EXTT10=
EXTT11=
EXTT12=
EXTT13=
EXTT14=
EXTT15=
EXTT16=
EXTT17=
EXTT18=
EXTT19=
EXTT20=
EXTT21=
EXTT22=
EXTT23=
PLAYORDER=
